<svg id="menu" xmlns="http://www.w3.org/2000/svg" width="30.559" height="15.28" viewBox="0 0 30.559 15.28">
  <g id="Menu_1_">
    <path id="Path_10" data-name="Path 10" d="M29.6,98.153H.955a.955.955,0,0,1,0-1.91H29.6a.955.955,0,0,1,0,1.91Z" transform="translate(0 -96.243)" fill="#fff236"/>
    <path id="Path_11" data-name="Path 11" d="M.955,180.455H29.6a.955.955,0,1,1,0,1.91H.955a.955.955,0,1,1,0-1.91Z" transform="translate(0 -173.77)" fill="#fff236"/>
    <path id="Path_12" data-name="Path 12" d="M121.258,264.667h19.1a.955.955,0,1,1,0,1.91h-19.1a.955.955,0,0,1,0-1.91Z" transform="translate(-120.303 -251.297)" fill="#fff236"/>
  </g>
</svg>
